# xmcd CD database file
#
# Track frame offsets:
#	150
#	17971
#	30951
#	45979
#	59455
#	78019
#	93489
#	111904
#	131467
#	146062
#	158260
#	179159
#	196863
#	218346
#	237355
#
# Disc length: 3331 seconds
#
# Revision: 0
# Processed by: cddbd v1.5.1PL2 Copyright (c) Steve Scherf et al.
# Submitted via: CDex 1.51
#
DISCID=bb0d010f
DTITLE=0472-Garth Brooks - The Best Of CD 3
DYEAR=2003
DGENRE=Country
TTITLE0=Make You Feel My Love
TTITLE1=Mama's In The Graveyard, Papa's In The Pen
TTITLE2=Mr. Blue
TTITLE3=Much Too Young 
TTITLE4=Night Riders Lament - with Willy Nelson
TTITLE5=Right Now - with Chris Gaines
TTITLE6=Mr. Midnight
TTITLE7=Shameless 
TTITLE8=Somewhere Other Than The Night 
TTITLE9=The Fever
TTITLE10=The Storm
TTITLE11=To Make You Feel My Love
TTITLE12=We Shall Be Free
TTITLE13=Wild As The Wind
TTITLE14=Wrapped Up in You 
EXTD=YEAR: 2003
EXTT0=
EXTT1=
EXTT2=
EXTT3=
EXTT4=
EXTT5=
EXTT6=
EXTT7=
EXTT8=
EXTT9=
EXTT10=
EXTT11=
EXTT12=
EXTT13=
EXTT14=
PLAYORDER=
